/* XPM */
static char * sing_xpm[] = {
"33 33 3 1",
" 	c #BDBDBEBEBDBD",
".	c #000000000000",
"X	c #FFFFFFFFFFFF",
"                                 ",
"                          ..     ",
"                         ..XX    ",
"                        ..XX     ",
"                       ..XX      ",
"                      ..XX       ",
"                     ..XX        ",
"                    ..XX         ",
"                   ..XX          ",
"     ....         ..XX           ",
"    ..XX...      ..XX            ",
"   ..XX X ...   ..X              ",
"   .X       .. ..X               ",
"   .X        ....                ",
"   .X      ..XXX..               ",
"    .XX  ...X  XX..              ",
"     .....XX    XX..             ",
"         X       XX..            ",
"                  XX..           ",
"                   XX..          ",
"                    XX..         ",
"                     XX..        ",
"                      XX..       ",
"                       XX..      ",
"                        XX..     ",
"                         XXX.    ",
"                           XX    ",
"                                 ",
"                                 ",
"                                 ",
"                                 ",
"                                 ",
"                                 "};
